<svg xmlns="http://www.w3.org/2000/svg" viewBox="0 0 438.41 191.93"><defs><style>.cls-1,.cls-2,.cls-3,.cls-8{fill:#fff;}.cls-12,.cls-2,.cls-3,.cls-5,.cls-8{stroke:#000;}.cls-2{stroke-width:0.5px;}.cls-3{stroke-width:0.54px;}.cls-4{fill:#8fd6ff;}.cls-5{stroke-linejoin:round;stroke-width:0.63px;}.cls-11,.cls-6,.cls-7,.cls-9{isolation:isolate;}.cls-7{font-size:17.5px;fill:#e10000;}.cls-11,.cls-7,.cls-9{font-family:SegoeUI, Segoe UI;}.cls-12,.cls-8{stroke-width:0.75px;}.cls-9{font-size:12.5px;}.cls-10{letter-spacing:-0.09em;}.cls-11{font-size:11px;}.cls-12{fill:none;}</style></defs><title>OJ103514686</title><g id="Shapes"><g id="layer6"><rect id="rect9544" class="cls-1" width="438.41" height="191.93"/></g><circle id="path9108" class="cls-2" cx="34.8" cy="85.45" r="33.34" transform="translate(-45.7 119.69) rotate(-88.09)"/><circle id="circle9116" class="cls-2" cx="385.26" cy="140.78" r="33.34"/><g id="g9126"><circle id="circle9114" class="cls-2" cx="383.24" cy="43.81" r="33.34"/></g><g id="g9151"><rect id="rect9131" class="cls-3" x="170.91" y="32.72" width="86.83" height="110.07"/><rect id="rect9142" class="cls-4" x="171.55" y="87.05" width="85.54" height="18.07"/></g><path id="path5424" class="cls-5" d="M149.84,85.41l12,4.42-12,4.42A7.52,7.52,0,0,0,149.84,85.41Z" transform="translate(6.06 2.3)"/><path id="path9159" class="cls-5" d="M160.53,89.85" transform="translate(6.06 2.3)"/><path id="path9195" class="cls-5" d="M277.09,86.33l-11.78,2.29,7.49-9.38A7,7,0,0,0,277.09,86.33Z" transform="translate(6.06 2.3)"/><path id="path9185" class="cls-5" d="M266.36,88" transform="translate(6.06 2.3)"/><path id="path9231" class="cls-5" d="M273.25,104.24l-7.94-9L277.18,97A7.06,7.06,0,0,0,273.25,104.24Z" transform="translate(6.06 2.3)"/><path id="path9221" class="cls-5" d="M266.41,95.82" transform="translate(6.06 2.3)"/><g id="text9513" class="cls-6"><text class="cls-7" transform="translate(258.49 101.39)">?</text></g><line class="cls-8" x1="279.56" y1="102.05" x2="347.31" y2="137.3"/></g><g id="txt"><g id="text9118" class="cls-6"><text class="cls-9" transform="translate(355.08 48.46)"><tspan class="cls-10">T</tspan><tspan x="5.46" y="0">ravail 1</tspan></text></g><g id="text9122" class="cls-6"><text class="cls-9" transform="translate(356.84 145.44)"><tspan class="cls-10">T</tspan><tspan x="5.46" y="0">ravail 2</tspan></text></g><g id="text9133" class="cls-6"><text class="cls-9" transform="translate(178.09 47.85)">Commandes</text></g><g id="text9144" class="cls-6"><text class="cls-11" transform="translate(173.46 100.38)">commande #123</text></g><g id="text9181" class="cls-6"><text class="cls-9" transform="translate(86.45 109.15)">Créer une<tspan x="0" y="15">commande</tspan></text></g><g id="text9389" class="cls-6"><text class="cls-9" transform="translate(286.98 97.5)"><tspan class="cls-10">T</tspan><tspan x="5.46" y="0">raiter les commandes</tspan></text></g><line class="cls-8" x1="158.06" y1="92.3" x2="80.06" y2="92.3"/><line class="cls-12" x1="279.73" y1="85.88" x2="344.81" y2="47.3"/></g></svg>