<svg xmlns="http://www.w3.org/2000/svg" viewBox="0 0 477.3 264.1"><title>OJ103614615</title><g id="Shapes"><path id="path34" d="M122,215.7c0-10.2,14.2-18.5,31.6-18.5s31.6,8.3,31.6,18.5-14.1,18.5-31.6,18.5S122,226,122,215.7" fill="none" stroke="#000" stroke-linecap="round" stroke-linejoin="round" stroke-width="0.67"/><path id="path48" d="M262.5,57.9c0-14.5,17-26.3,38.1-26.3s38.1,11.8,38.1,26.3-17,26.3-38.1,26.3-38.1-11.8-38.1-26.3" fill="none" stroke="#000" stroke-linecap="round" stroke-linejoin="round" stroke-width="0.67"/><path id="path64" d="M384.4,234.2c0-10.6,16.6-19.3,37-19.3s37,8.6,37,19.3-16.6,19.3-37,19.3-37-8.6-37-19.3" fill="none" stroke="#000" stroke-linecap="round" stroke-linejoin="round" stroke-width="0.67"/><path id="path78" d="M13,45.6c0-11.1,13.1-20.2,29.2-20.2s29.2,9,29.2,20.2S58.3,65.8,42.2,65.8,13,56.7,13,45.6" fill="none" stroke="#000" stroke-linecap="round" stroke-linejoin="round" stroke-width="0.67"/><path id="path92" d="M382.7,33.4c0-11.3,18.8-20.5,42-20.5s42,9.2,42,20.5-18.8,20.5-42,20.5-42-9.2-42-20.5" fill="none" stroke="#000" stroke-linecap="round" stroke-linejoin="round" stroke-width="0.67"/><path id="path108" d="M2,176.7c0-11.1,13-20.2,29.1-20.2s29.1,9,29.1,20.2-13,20.2-29.1,20.2S2,187.8,2,176.7" fill="none" stroke="#000" stroke-linecap="round" stroke-linejoin="round" stroke-width="0.67"/><path id="path122" d="M290.1,141.8c0-9.9,15.6-18,34.9-18s34.9,8,34.9,18-15.6,18-34.9,18-34.9-8-34.9-18" fill="none" stroke="#000" stroke-linecap="round" stroke-linejoin="round" stroke-width="0.67"/><path id="path150" d="M399.7,106.9c0-12.6,13-22.8,28.9-22.8s28.9,10.2,28.9,22.8-12.9,22.8-28.9,22.8-28.9-10.2-28.9-22.8" fill="none" stroke="#000" stroke-linecap="round" stroke-linejoin="round" stroke-width="0.67"/><path id="path166" d="M252,244.8c0-10.5,17.5-19,39.17-19s39.16,8.5,39.16,19-17.5,19-39.16,19S252,255.3,252,244.8" fill="none" stroke="#000" stroke-linecap="round" stroke-linejoin="round" stroke-width="0.7"/><path id="path175" d="M88.3,34.1c0-11.7,18.2-21.2,40.6-21.2s40.7,9.5,40.7,21.2-18.2,21.2-40.7,21.2S88.3,45.8,88.3,34.1" fill="none" stroke="#000" stroke-linecap="round" stroke-linejoin="round" stroke-width="0.67"/><g id="shape52-83"><path id="path198" d="M178.19,142.89l-24.3,54.5" fill="none" stroke="#000" stroke-linecap="round" stroke-linejoin="round" stroke-width="0.33"/></g><g id="shape58-89"><path id="path208" d="M416.08,214l-84.7-140.6" fill="none" stroke="#000" stroke-linecap="round" stroke-linejoin="round" stroke-width="0.33"/></g><path id="path220" d="M8,242.6c0-11,16.6-20,37.2-20s37.2,9,37.2,20-16.6,20-37.2,20S8,253.7,8,242.6" fill="none" stroke="#000" stroke-linecap="round" stroke-linejoin="round" stroke-width="0.67"/><g id="shape63-98"><path id="path227" d="M232.09,98.07,267,73" fill="none" stroke="#000" stroke-linecap="round" stroke-linejoin="round" stroke-width="0.33"/></g><g id="shape65-101"><path id="path232" d="M337.27,64l62.4,43.1" fill="none" stroke="#000" stroke-linecap="round" stroke-linejoin="round" stroke-width="0.33"/></g><g id="shape67-104"><path id="path237" d="M328.08,38.92l54.8-8" fill="none" stroke="#000" stroke-linecap="round" stroke-linejoin="round" stroke-width="0.33"/></g><g id="shape70-107"><path id="path242" d="M77.79,98.36l86.3,23" fill="none" stroke="#000" stroke-linecap="round" stroke-linejoin="round" stroke-width="0.33"/></g><g id="shape73-110"><path id="path247" d="M69.1,112.66l62.3,90.2" fill="none" stroke="#000" stroke-linecap="round" stroke-linejoin="round" stroke-width="0.33"/></g><g id="shape76-113"><path id="path252" d="M176.06,228.86,252,245" fill="none" stroke="#000" stroke-linecap="round" stroke-linejoin="round" stroke-width="0.33"/></g><g id="shape77-116"><path id="path257" d="M212.33,150.4l55.9,78.5" fill="none" stroke="#000" stroke-linecap="round" stroke-linejoin="round" stroke-width="0.33"/></g><g id="shape78-119"><path id="path262" d="M290.28,141.38l-46.5-20" fill="none" stroke="#000" stroke-linecap="round" stroke-linejoin="round" stroke-width="0.33"/></g><g id="shape79-122"><path id="path267" d="M122.32,216l-61-28.6" fill="none" stroke="#000" stroke-linecap="round" stroke-linejoin="round" stroke-width="0.33"/></g><g id="shape80-125"><path id="path272" d="M131.39,228.89l-49,13.7" fill="none" stroke="#000" stroke-linecap="round" stroke-linejoin="round" stroke-width="0.33"/></g><g id="shape81-128"><path id="path277" d="M175.8,98,67.9,56" fill="none" stroke="#000" stroke-linecap="round" stroke-linejoin="round" stroke-width="0.33"/></g><g id="shape82-131"><path id="path282" d="M304.61,84.14l4.7,40" fill="none" stroke="#000" stroke-linecap="round" stroke-linejoin="round" stroke-width="0.33"/></g><g id="shape94-134"><path id="path287" d="M303.16,109.49h-.3v-1.3c0-.1.1,0,.1,0h.2v.1l.1,1.1h0c0,.1,0,.1-.1.1Z" fill="#fff"/></g><g id="shape96-136"><path id="path292" d="M265.08,29.46,274,38" fill="none" stroke="#000" stroke-linecap="round" stroke-linejoin="round" stroke-width="0.33"/></g><g id="shape97-139"><path id="path297" d="M169.77,37.55l92.3,16.1" fill="none" stroke="#000" stroke-linecap="round" stroke-linejoin="round" stroke-width="0.33"/></g><path id="path78-2" data-name="path78" d="M5.33,98.2C5.33,87.1,21.54,78,41.47,78S77.6,87,77.6,98.2s-16.21,20.2-36.13,20.2S5.33,109.3,5.33,98.2" fill="none" stroke="#000" stroke-linecap="round" stroke-linejoin="round" stroke-width="0.74"/><path id="path175-2" data-name="path175" d="M178.67,19c0-8.7,21.22-15.9,47.31-15.9S273.3,10.2,273.3,19,252.08,34.9,226,34.9,178.67,27.8,178.67,19" fill="none" stroke="#000" stroke-linecap="round" stroke-linejoin="round" stroke-width="0.74"/><path id="path78-3" data-name="path78" d="M164.8,120.4c0-16.5,17.5-30,38.9-30,21.6,0,38.9,13.4,38.9,30s-17.5,30-38.9,30c-21.4-.2-38.9-13.5-38.9-30" fill="none" stroke="#000" stroke-linecap="round" stroke-linejoin="round" stroke-width="0.67"/></g><g id="Text"><text transform="translate(22.97 49.07)" font-size="10" font-family="SegoePrint, Segoe Print">Retou<tspan x="28.93" y="0" letter-spacing="0.02em">r</tspan><tspan x="34.22" y="0">s</tspan></text><text transform="translate(7.57 101.2)" font-size="11" font-family="SegoePrint, Segoe Print">Facturation</text><text transform="translate(5.07 180.73)" font-size="9" font-family="SegoePrint, Segoe Print">Fidélisation</text><text transform="translate(132.6 219.05)" font-size="9" font-family="SegoePrint, Segoe Print"><tspan letter-spacing="-0.02em">C</tspan><tspan x="6.12" y="0">omptes</tspan></text><text transform="translate(255.77 248.8)" font-size="9" font-family="SegoePrint, Segoe Print"><tspan letter-spacing="-0.01em">C</tspan><tspan x="6.21" y="0">ent</tspan><tspan x="21.07" y="0" letter-spacing="0em">r</tspan><tspan x="25.7" y="0">e d’appels</tspan></text><text transform="translate(314.87 144.48)" font-size="9" font-family="SegoePrint, Segoe Print">Tie<tspan x="13.33" y="0" letter-spacing="0.02em">r</tspan><tspan x="18.09" y="0">s</tspan></text><text transform="translate(183.55 20.6)" font-size="9" font-family="SegoePrint, Segoe Print"><tspan letter-spacing="-0.02em">P</tspan><tspan x="6.16" y="0">a</tspan><tspan x="11.44" y="0" letter-spacing="0.04em">r</tspan><tspan x="16.42" y="0">tage de drones</tspan></text><text transform="translate(20.16 239.7)" font-size="9" font-family="SegoePrint, Segoe Print">Évaluation<tspan x="-8.46" y="10.8">de l’utilisateur</tspan></text><text transform="translate(397.42 230.6)" font-size="9" font-family="SegoePrint, Segoe Print"><tspan letter-spacing="0.01em">A</tspan><tspan x="7.08" y="0">nalyse de</tspan><tspan x="-7.31" y="10.8">l’heu</tspan><tspan x="13.2" y="10.8" letter-spacing="0em">r</tspan><tspan x="17.82" y="10.8">e prévue</tspan></text><text transform="translate(174.16 123.55)" font-size="11" font-family="SegoePrint, Segoe Print">Expédition</text><text transform="translate(91.22 36.1)" font-size="9" font-family="SegoePrint, Segoe Print">Vidéosu<tspan x="34.08" y="0" letter-spacing="0.04em">r</tspan><tspan x="39.06" y="0">veillance</tspan></text><text transform="translate(274.65 58.13)" font-size="9" font-family="SegoePrint, Segoe Print">Gestion des <tspan x="10.66" y="10.8">drones</tspan></text><text transform="translate(407.29 30.53)" font-size="9" font-family="SegoePrint, Segoe Print"><tspan letter-spacing="0.01em">A</tspan><tspan x="7.08" y="0">nalyse </tspan><tspan x="-4.94" y="10.8">prédictive</tspan></text><text transform="translate(404.62 106.48)" font-size="9" font-family="SegoePrint, Segoe Print">Réparation <tspan x="4.79" y="10.8">de drone</tspan></text></g></svg>