<svg xmlns="http://www.w3.org/2000/svg" viewBox="0 0 457.04 220.02"><title>OJ103614597</title><g id="Shapes"><rect x="1.75" y="141.37" width="176.99" height="49.51" fill="#fff"/><path d="M178.23,141.71v40.95H2.25V141.71h176m1-.84H1.25V183.5h178Z"/><line x1="40.33" y1="141.47" x2="40.33" y2="116.21" fill="none" stroke="#000" stroke-miterlimit="10"/><circle cx="40.33" cy="111.4" r="4.81" fill="none" stroke="#000" stroke-miterlimit="10"/><line x1="140.15" y1="141.47" x2="140.15" y2="116.21" fill="none" stroke="#000" stroke-miterlimit="10"/><circle cx="140.15" cy="111.4" r="4.81" fill="none" stroke="#000" stroke-miterlimit="10"/><rect x="1.75" y="0.5" width="77.17" height="53.12" fill="#fff"/><path d="M78.42,1V53.12H2.25V1H78.42m1-1H1.25V54.12H79.42Z"/><line x1="40.33" y1="53.68" x2="40.33" y2="94.61" fill="none" stroke="#000" stroke-miterlimit="10"/><polygon points="35.35 93.15 40.33 101.78 45.32 93.15 35.35 93.15"/><rect x="101.56" y="0.5" width="77.17" height="53.12" fill="#fff"/><path d="M178.23,1V53.12H102.07V1h76.16m1-1H101.07V54.12h78.16Z"/><line x1="140.15" y1="53.68" x2="140.15" y2="94.61" fill="none" stroke="#000" stroke-miterlimit="10"/><polygon points="135.16 93.15 140.15 101.78 145.14 93.15 135.16 93.15"/><line x1="318.14" y1="141.47" x2="318.14" y2="116.21" fill="none" stroke="#000" stroke-miterlimit="10"/><circle cx="318.14" cy="111.4" r="4.81" fill="none" stroke="#000" stroke-miterlimit="10"/><line x1="417.95" y1="141.47" x2="417.95" y2="116.21" fill="none" stroke="#000" stroke-miterlimit="10"/><circle cx="417.95" cy="111.4" r="4.81" fill="none" stroke="#000" stroke-miterlimit="10"/><rect x="279.55" y="0.5" width="77.17" height="53.12" fill="#fff"/><path d="M356.22,1V53.12H280.05V1h76.17m1-1H279.05V54.12h78.17Z"/><line x1="318.14" y1="53.68" x2="318.14" y2="94.61" fill="none" stroke="#000" stroke-miterlimit="10"/><polygon points="313.15 93.15 318.14 101.78 323.12 93.15 313.15 93.15"/><rect x="379.37" y="0.5" width="77.17" height="53.12" fill="#fff"/><path d="M456,1V53.12H379.87V1H456m1-1H378.87V54.12H457Z"/><line x1="417.95" y1="53.68" x2="417.95" y2="94.61" fill="none" stroke="#000" stroke-miterlimit="10"/><polygon points="412.97 93.15 417.95 101.78 422.94 93.15 412.97 93.15"/><rect x="279.55" y="139.56" width="77.17" height="53.12" fill="#fff"/><path d="M356.22,140.06v52.12H280.05V140.06h76.17m1-1H279.05v54.12h78.17Z"/><rect x="379.37" y="139.56" width="77.17" height="53.12" fill="#fff"/><path d="M456,140.06v52.12H379.87V140.06H456m1-1H378.87v54.12H457Z"/></g><g id="Text"><text transform="translate(122.01 23.22)" font-size="14.5" font-family="SegoeUI, Segoe UI">Client<tspan x="-10.51" y="17.4">version 2</tspan></text><text transform="translate(21.98 23.22)" font-size="14.5" font-family="SegoeUI, Segoe UI">Client<tspan x="-10.51" y="17.4">version 1</tspan></text><text transform="translate(51.58 114.41)" font-size="14.5" font-family="SegoeUI, Segoe UI">v1</text><text transform="translate(63.71 169.24)" font-size="14.5" font-family="SegoeUI, Segoe UI">Service</text><text transform="translate(31.25 198.68)" font-size="14.4" font-family="SegoeUI-Italic, Segoe UI" font-style="italic"><tspan letter-spacing="-0.02em">L</tspan><tspan x="6.38" y="0">e </tspan><tspan x="17.35" y="0" letter-spacing="-0.01em">s</tspan><tspan x="22.89" y="0">e</tspan><tspan x="29.9" y="0" letter-spacing="0.02em">r</tspan><tspan x="35.3" y="0">vi</tspan><tspan x="45.84" y="0" letter-spacing="-0.01em">c</tspan><tspan x="51.98" y="0">e p</tspan><tspan x="70.76" y="0" letter-spacing="0em">r</tspan><tspan x="75.88" y="0" letter-spacing="0em">end en</tspan><tspan x="-5.67" y="17.28">cha</tspan><tspan x="16.44" y="17.28" letter-spacing="-0.01em">r</tspan><tspan x="21.45" y="17.28">ge deux </tspan><tspan x="73.59" y="17.28" letter-spacing="0em">v</tspan><tspan x="80.36" y="17.28">e</tspan><tspan x="87.37" y="17.28" letter-spacing="0.01em">r</tspan><tspan x="92.62" y="17.28">sions</tspan></text><text transform="translate(150.64 115.61)" font-size="14.5" font-family="SegoeUI, Segoe UI">v2</text><text transform="translate(399.82 23.22)" font-size="14.5" font-family="SegoeUI, Segoe UI">Client<tspan x="-10.51" y="17.4">version 2</tspan></text><text transform="translate(299.79 23.22)" font-size="14.5" font-family="SegoeUI, Segoe UI">Client<tspan x="-10.51" y="17.4">version 1</tspan></text><text transform="translate(329.39 114.41)" font-size="14.5" font-family="SegoeUI, Segoe UI">v1</text><text transform="translate(292.93 215.68)" font-size="14.4" font-family="SegoeUI-Italic, Segoe UI" font-style="italic">Déploiement <tspan x="83.31" y="0" letter-spacing="-0.01em">c</tspan><tspan x="89.46" y="0">ô</tspan><tspan x="97.16" y="0" letter-spacing="0em">t</tspan><tspan x="101.83" y="0">e à </tspan><tspan x="124.57" y="0" letter-spacing="-0.01em">c</tspan><tspan x="130.72" y="0">ô</tspan><tspan x="138.42" y="0" letter-spacing="0em">t</tspan><tspan x="143.09" y="0">e</tspan></text><text transform="translate(428.45 115.61)" font-size="14.5" font-family="SegoeUI, Segoe UI">v2</text><text transform="translate(295.12 162.54)" font-size="14.4" font-family="SegoeUI, Segoe UI">Service <tspan x="-6.29" y="17.28">version 1</tspan></text><text transform="translate(395.46 162.54)" font-size="14.4" font-family="SegoeUI, Segoe UI">Service <tspan x="-6.29" y="17.28">version 2</tspan></text></g></svg>