<svg xmlns="http://www.w3.org/2000/svg" viewBox="0 0 751 266.87"><defs><style>.cls-1{fill:none;stroke:#afafaf;stroke-miterlimit:10;stroke-width:6px;}.cls-2{fill:#afafaf;}.cls-3{fill:#3fa0ec;}.cls-4{font-size:18px;}.cls-4,.cls-5,.cls-6,.cls-7{fill:#fff;font-family:SegoeUI, Segoe UI;}.cls-5{font-size:17px;}.cls-6{font-size:18.04px;}.cls-7{font-size:16px;}.cls-8{letter-spacing:-0.09em;}.cls-9{letter-spacing:-0.03em;}</style></defs><title>OJ103514635</title><g id="Shapes"><line class="cls-1" x1="102" y1="152" x2="132.24" y2="152"/><polygon class="cls-2" points="130.05 159.48 143 152 130.05 144.52 130.05 159.48"/><line class="cls-1" x1="105" y1="56.86" x2="132.24" y2="56.86"/><polygon class="cls-2" points="130.05 64.34 143 56.86 130.05 49.38 130.05 64.34"/><line class="cls-1" x1="596" y1="104.87" x2="626.23" y2="104.88"/><polygon class="cls-2" points="624.04 112.35 637 104.88 624.05 97.39 624.04 112.35"/><line class="cls-1" x1="446" y1="169.82" x2="626.24" y2="169.22"/><polygon class="cls-2" points="624.07 176.71 637 169.19 624.02 161.75 624.07 176.71"/><line class="cls-1" x1="451" y1="134.18" x2="477.22" y2="134.18"/><polygon class="cls-2" points="475.03 141.66 487.99 134.18 475.03 126.7 475.03 141.66"/><line class="cls-1" x1="446" y1="39.05" x2="626.24" y2="39.64"/><polygon class="cls-2" points="624.02 47.11 637 39.68 624.07 32.15 624.02 47.11"/><line class="cls-1" x1="451" y1="74.68" x2="477.22" y2="74.68"/><polygon class="cls-2" points="475.03 82.16 487.99 74.68 475.03 67.2 475.03 82.16"/><rect class="cls-3" x="142.5" y="118.64" width="182" height="67" rx="8" ry="8"/><rect class="cls-3" x="328.5" y="118.36" width="123" height="67" rx="8" ry="8"/><rect class="cls-3" x="328.5" y="23.36" width="123" height="67" rx="8" ry="8"/><rect class="cls-3" x="142.5" y="23.36" width="182" height="67" rx="8" ry="8"/><rect class="cls-3" x="637" width="114" height="209" rx="8" ry="8"/><rect class="cls-3" x="0.25" width="105" height="209" rx="8" ry="8"/><rect class="cls-3" y="217.87" width="751" height="49" rx="8" ry="8"/><rect class="cls-3" x="488.75" y="52.5" width="114" height="104" rx="8" ry="8"/></g><g id="txt"><text class="cls-4" transform="translate(321.42 246.32)">Orchestration</text><text class="cls-5" transform="translate(502.54 89.15)">Magasin de <tspan x="11.44" y="20.4">données </tspan><tspan x="1.1" y="40.8">analytiques</tspan></text><text class="cls-6" transform="translate(656.23 87.4)">Analyse et <tspan x="-3.89" y="21.65">création de </tspan><tspan x="7.21" y="43.3">rapports</tspan></text><text class="cls-7" transform="translate(351.51 50.77)"><tspan class="cls-8">T</tspan><tspan x="6.99" y="0">raitement </tspan><tspan x="11.02" y="19.2">par lots</tspan></text><text class="cls-7" transform="translate(352.31 139.08)"><tspan class="cls-8">T</tspan><tspan x="6.99" y="0">raitement </tspan><tspan x="2.68" y="19.2">de flux de </tspan><tspan x="7.28" y="38.4">données</tspan></text><text class="cls-7" transform="translate(149.3 144.46)">Ingestion des messages <tspan x="35.64" y="19.2">en temps réel</tspan></text><text class="cls-7" transform="translate(155.84 60.81)"><tspan class="cls-9">S</tspan><tspan x="7.98" y="0">tockage des données</tspan></text><text class="cls-4" transform="translate(8.24 97.89)">Sources de <tspan x="9.44" y="21.6">données</tspan></text></g></svg>