<svg xmlns="http://www.w3.org/2000/svg" viewBox="0 0 395.1 353.18"><defs><style>.cls-1,.cls-4{fill:none;stroke:#afafaf;stroke-miterlimit:10;}.cls-1{stroke-width:6px;}.cls-2{fill:#afafaf;}.cls-3{fill:#3fa0ec;}.cls-4{stroke-width:5.83px;}.cls-5,.cls-9{fill:#2a3282;}.cls-6,.cls-8{fill:#fff;}.cls-7{isolation:isolate;}.cls-10,.cls-7{font-size:18.04px;fill:#0070c0;}.cls-10,.cls-7,.cls-8,.cls-9{font-family:SegoeUI, Segoe UI;}.cls-8{font-size:14px;}.cls-9{font-size:18px;}.cls-11{letter-spacing:-0.02em;}</style></defs><title>OJ103514622</title><g id="Shapes"><line class="cls-1" x1="126.7" y1="247.92" x2="291.94" y2="247.92"/><polygon class="cls-2" points="128.89 255.4 115.94 247.92 128.89 240.44 128.89 255.4"/><line class="cls-1" x1="332.05" y1="69.71" x2="332.05" y2="183.95"/><polygon class="cls-2" points="324.57 181.76 332.05 194.71 339.53 181.76 324.57 181.76"/><rect class="cls-3" y="211.53" width="115.75" height="71.66" rx="8" ry="8"/><line class="cls-4" x1="115.93" y1="52.36" x2="272.17" y2="52.36"/><polygon class="cls-2" points="271.99 59.84 284.94 52.36 271.99 44.88 271.99 59.84"/><rect class="cls-3" y="16.53" width="115.75" height="71.66" rx="8" ry="8"/><path class="cls-5" d="M284,85v18.35c0,8.53,17.07,18,39.52,19.62h14.85c22.46-1.59,39.52-9.16,39.52-18V18.65C377.93,9.15,356.79,0,330.8,0S284,8.52,284,18.35V85Z" transform="translate(0 0.01)"/><ellipse class="cls-6" cx="330.96" cy="18.24" rx="36.71" ry="11.64"/><path class="cls-5" d="M292.11,267.38V283c0,7.26,14.53,15.34,33.64,16.7h12.64c19.12-1.35,33.64-7.8,33.64-15.34V210.87c0-8.08-18-15.88-40.12-15.88s-39.84,7.26-39.84,15.63v56.76Z" transform="translate(0 0.01)"/><ellipse class="cls-6" cx="332.05" cy="210.53" rx="31.25" ry="9.91"/></g><g id="txt"><text class="cls-7" transform="translate(153.16 46.13)">Événements</text><text class="cls-7" transform="translate(339.74 149.13)">Publier</text><text class="cls-8" transform="translate(304.93 52.08)">Magasin <tspan x="-16.86" y="21.3">d’événements</tspan></text><text class="cls-9" transform="translate(15.28 240.24)">Modèle de <tspan x="12.03" y="21.3">requête</tspan></text><text class="cls-9" transform="translate(15.16 46.45)">Modèle de <tspan x="-1.89" y="21.3">commande</tspan></text><text class="cls-10" transform="translate(316.85 324.11)"><tspan class="cls-11">V</tspan><tspan x="10.76" y="0">ue </tspan><tspan x="-32.47" y="21.65">matérialisée</tspan></text><text class="cls-7" transform="translate(177.92 240.13)">Lecture</text></g></svg>