<svg xmlns="http://www.w3.org/2000/svg" viewBox="0 0 786 353.13"><defs><style>.cls-1,.cls-3,.cls-4,.cls-6{fill:none;stroke:#afafaf;}.cls-1,.cls-4,.cls-6{stroke-miterlimit:10;}.cls-1,.cls-3{stroke-width:6px;}.cls-2{fill:#afafaf;}.cls-3{stroke-linejoin:bevel;}.cls-4{stroke-width:5.19px;}.cls-5{fill:#3fa0ec;}.cls-6{stroke-width:5.13px;}.cls-7{fill:#8fb6cc;}.cls-11,.cls-13,.cls-8,.cls-9{isolation:isolate;}.cls-11,.cls-8{font-size:18px;}.cls-8{fill:#213d47;}.cls-11,.cls-12,.cls-13,.cls-14,.cls-8,.cls-9{font-family:SegoeUI, Segoe UI;}.cls-9{font-size:17.97px;}.cls-11,.cls-12,.cls-13,.cls-14,.cls-9{fill:#fff;}.cls-10{letter-spacing:-0.04em;}.cls-12{font-size:18.04px;}.cls-13,.cls-14{font-size:16px;}</style></defs><title>OJ103514636</title><g id="Shapes"><line class="cls-1" x1="561.76" y1="209.38" x2="681" y2="209.38"/><polygon class="cls-2" points="563.95 216.86 551 209.38 563.95 201.9 563.95 216.86"/><line class="cls-1" x1="538" y1="36.38" x2="670.24" y2="36.38"/><polygon class="cls-2" points="668.05 43.86 681 36.38 668.05 28.9 668.05 43.86"/><line class="cls-1" x1="537" y1="109.38" x2="670.24" y2="110.31"/><polygon class="cls-2" points="668 117.77 681 110.38 668.1 102.81 668 117.77"/><line class="cls-3" x1="537" y1="272.87" x2="671.23" y2="272.7"/><polygon class="cls-2" points="669.05 280.18 682 272.68 669.04 265.22 669.05 280.18"/><line class="cls-1" x1="561.76" y1="143.38" x2="681" y2="143.38"/><polygon class="cls-2" points="563.95 150.86 551 143.38 563.95 135.9 563.95 150.86"/><line class="cls-4" x1="290" y1="272.38" x2="420.33" y2="272.38"/><polygon class="cls-2" points="414.05 279.86 427 272.38 414.05 264.9 414.05 279.86"/><rect class="cls-5" x="214.5" y="0.38" width="76" height="352.75" rx="8" ry="8"/><path class="cls-5" d="M439.43,0h98.22c7.24,0,13.1,3.58,13.1,8V178c0,4.42-5.86,8-13.1,8H439.43c-7.23,0-13.1-3.58-13.1-8V8C426.33,3.58,432.2,0,439.43,0Z"/><path class="cls-5" d="M439.43,193.78h98.22c7.24,0,13.1,3.58,13.1,8v142c0,4.42-5.86,8-13.1,8H439.43c-7.23,0-13.1-3.58-13.1-8v-142C426.33,197.36,432.2,193.78,439.43,193.78Z"/><path class="cls-5" d="M308.21,242.73h84.67c3.75,0,6.79,3.58,6.79,8v44.1c0,4.42-3,8-6.79,8H308.21c-3.75,0-6.79-3.58-6.79-8v-44.1C301.42,246.31,304.46,242.73,308.21,242.73Z"/><rect class="cls-5" x="585" y="121.38" width="61.75" height="109" rx="8" ry="8"/><line class="cls-6" x1="290" y1="72.38" x2="417.17" y2="73.32"/><polygon class="cls-2" points="413.68 80.79 426.67 73.38 413.76 65.83 413.68 80.79"/><rect class="cls-5" x="681" width="105" height="73" rx="8" ry="8"/><rect class="cls-5" x="681" y="81.78" width="105" height="270" rx="8" ry="8"/><rect class="cls-5" x="110.25" y="83.88" width="70" height="185.75" rx="8" ry="8"/><line class="cls-1" x1="180" y1="176.76" x2="203.24" y2="176.76"/><polygon class="cls-2" points="201.05 184.24 214 176.76 201.05 169.28 201.05 184.24"/><path class="cls-7" d="M68,4.38a4,4,0,0,1,4,4v335a4,4,0,0,1-4,4H8a4,4,0,0,1-4-4V8.38a4,4,0,0,1,4-4H68m0-4H8a8,8,0,0,0-8,8v335a8,8,0,0,0,8,8H68a8,8,0,0,0,8-8V8.38A8,8,0,0,0,68,.38Z"/><line class="cls-1" x1="76" y1="176.76" x2="99.24" y2="176.76"/><polygon class="cls-2" points="97.05 184.24 110 176.76 97.05 169.28 97.05 184.24"/></g><g id="txt"><text class="cls-8" transform="translate(15.44 179.85)">Client</text><text class="cls-9" transform="translate(128.57 180.71) scale(0.97 1)"><tspan class="cls-10">W</tspan><tspan x="16.08" y="0">AF</tspan></text><text class="cls-11" transform="translate(593.77 179.71)">Cache</text><text class="cls-12" transform="translate(221.29 170.18)">Couche <tspan x="13.42" y="21.65">web</tspan></text><text class="cls-13" transform="translate(311.27 276.59)">Messagerie</text><text class="cls-14" transform="translate(466.8 85.16)">Niveau <tspan x="-28.8" y="19.2">intermédiaire 1</tspan></text><text class="cls-14" transform="translate(466.3 265.82)">Niveau <tspan x="-28.8" y="19.2">intermédiaire 2</tspan></text><text class="cls-12" transform="translate(707.47 30.06)">Service <tspan x="0.9" y="21.65">distant</tspan></text><text class="cls-12" transform="translate(704.04 220.85)">Couche <tspan x="-5.12" y="21.65">Données</tspan></text></g></svg>